<?xml version="1.0" encoding="UTF-8"?>
<svg width="178px" height="198px" viewBox="0 0 178 198" version="1.1" xmlns="http://www.w3.org/2000/svg" xmlns:xlink="http://www.w3.org/1999/xlink">
    <title>ico-myp-link-list01</title>
    <g id="Page-1" stroke="none" stroke-width="1" fill="none" fill-rule="evenodd">
        <g id="Artboard" transform="translate(-2413.000000, -1651.000000)" fill="#FFFFFF" fill-rule="nonzero">
            <g id="ico-myp-link-list01" transform="translate(2413.000000, 1651.000000)">
                <path d="M171.317809,113.649269 C162.40822,104.783577 147.898319,104.783577 138.98873,113.649269 L97.2409437,155.191371 C96.4772647,155.951287 95.7135857,157.217815 95.459026,158.231037 L86.2948778,188.121086 C85.5311987,190.654141 86.2948778,193.693807 88.0767955,195.720251 C89.6041535,197.240084 91.3860712,198 93.4225486,198 C94.1862276,198 94.695347,198 95.459026,197.746695 L126.260746,189.387613 C127.533545,189.134308 128.551783,188.374391 129.570022,187.361169 L171.317809,145.819068 C180.227397,136.953375 180.227397,122.514962 171.317809,113.649269 L171.317809,113.649269 Z M120.151314,175.202505 L104.623174,179.508699 L109.205248,164.563674 L137.461372,136.70007 L148.152878,147.3389 L120.151314,175.202505 L120.151314,175.202505 Z M160.371743,135.180237 L159.098944,136.70007 L148.407438,126.061239 L149.934796,124.541406 C152.989512,121.50174 157.826146,121.50174 160.626302,124.541406 C163.426459,127.327766 163.426459,132.140571 160.371743,135.180237 Z" id="Shape"></path>
                <path d="M127.301435,0 L31.1913876,0 C14.2009569,0 0,13.6726343 0,30.8900256 L0,167.109974 C0,184.327366 14.2009569,198 31.1913876,198 L57.3110048,198 C61.6220096,198 65.1722488,194.455243 65.1722488,190.404092 C65.1722488,186.099744 61.6220096,182.554987 57.3110048,182.554987 L31.1913876,182.554987 C22.569378,182.554987 15.722488,175.71867 15.4688995,167.109974 L15.4688995,86.3401535 L50.4641148,86.3401535 C54.7751196,86.3401535 58.3253589,82.7953964 58.3253589,78.4910486 C58.3253589,74.1867008 54.7751196,70.6419437 50.4641148,70.6419437 L15.722488,70.6419437 L15.722488,60.5140665 L50.7177033,60.5140665 C55.0287081,60.5140665 58.5789474,56.9693095 58.5789474,52.6649616 C58.5789474,48.3606138 55.0287081,44.8158568 50.7177033,44.8158568 L15.722488,44.8158568 L15.722488,30.3836317 C15.722488,21.7749361 22.8229665,14.9386189 31.4449761,14.9386189 L127.555024,14.9386189 C136.177033,14.9386189 143.023923,21.7749361 143.277512,30.3836317 L143.277512,78.4910486 C143.277512,82.7953964 146.827751,86.3401535 151.138756,86.0869565 C155.449761,86.0869565 159,82.5421995 159,78.4910486 L159,30.8900256 C158.492823,13.6726343 144.545455,0 127.301435,0 Z" id="Path"></path>
            </g>
        </g>
    </g>
</svg>