<?xml version="1.0" encoding="UTF-8"?>
<svg width="150px" height="192px" viewBox="0 0 150 192" version="1.1" xmlns="http://www.w3.org/2000/svg" xmlns:xlink="http://www.w3.org/1999/xlink">
    <title>Shape</title>
    <g id="Page-1" stroke="none" stroke-width="1" fill="none" fill-rule="evenodd">
        <g id="ico-proj-cl-list02" transform="translate(-1.000000, 0.000000)" fill="#1C1C1C" fill-rule="nonzero">
            <path d="M60.954,22.975 C33.854,29.375 17.054,53.075 17.054,84.875 L17.054,135.375 C17.054,135.875 16.854,136.475 16.454,136.875 L3.354,149.975 C1.054,152.275 0.354,155.775 1.554,158.775 C2.754,161.775 5.654,163.775 8.954,163.675 L142.054,163.675 C145.354,163.675 148.254,161.775 149.554,158.675 C150.854,155.675 150.154,152.175 147.754,149.875 L134.654,136.775 C134.254,136.375 134.054,135.875 134.054,135.275 L134.054,84.775 C134.054,53.475 116.854,29.275 90.154,22.875 C89.254,22.675 88.554,21.775 88.554,20.875 L88.554,13.975 C88.554,6.775 82.754,0.875 75.454,0.875 C68.254,0.875 62.354,6.675 62.354,13.975 L62.554,20.975 C62.554,21.975 61.854,22.775 60.954,22.975 Z M75.554,37.275 C100.554,37.275 118.054,56.775 118.054,84.775 L118.054,145.375 C118.054,146.475 117.154,147.475 115.954,147.475 L35.054,147.475 C33.954,147.475 32.954,146.575 32.954,145.375 L32.954,84.775 C33.154,56.775 50.654,37.275 75.554,37.275 Z M75.654,191.075 C86.854,191.075 95.854,181.975 95.854,170.875 L55.454,170.875 C55.454,182.075 64.454,191.075 75.654,191.075 Z" id="Shape"></path>
        </g>
    </g>
</svg>