<svg xmlns="http://www.w3.org/2000/svg" id="Layer_1" x="0" y="0" enable-background="new 0 0 683 574.4" version="1.1" viewBox="0 0 683 574.4" xml:space="preserve">
    <style>
        .st1{fill:#263238}.st2{fill:#ffc4c0}.st3{fill:#ffc727}.st4{fill:#fff}.st5{opacity:.1;enable-background:new}.st6{fill:#dbdbdb}.st7{fill:#ebebeb}.st9{fill:#37474f}
    </style>
        <g transform="translate(-998 -583)">
            <circle cx="1393.8" cy="870.2" r="287.2" fill="#FFC53A" enable-background="new" opacity="0.1"/>
            <g>
                <path d="M0 234.4l81.7-.4 81.7-.1 163.5-.2 163.5.2 81.7.1 81.7.4-81.7.4-81.7.1-163.5.3-163.5-.2-81.7-.1-81.7-.5z" class="st1" transform="translate(998 599.176) translate(0 169.009)"/>
                <g>
                    <path d="M146 284.4c8.5 7.1 17.8 13.3 27.7 18.5-13.7-24.9-6.3-78-5.1-70.3 5.9 37.1 28.1 79.1 37.8 81.9h.2c24.1 4.6 49 2.1 71.7-7.2v-.1c-18-28.4-12.1-82.5-11.1-79.1 11.7 36.7 40.8 59.9 46.2 60.3 21.5-15.1 33.5-31 30.8-32.9-19.5-14.1-34.1-47.5-46.8-82.5-12.6-34.6-17.3-84.9-36.6-116.4-17.7-28.9-57.4-37.4-81.5-25.4-63.1 31.2-45.2 243.3-33.3 253.2z" class="st1" transform="translate(998 599.176) translate(7.324 0)"/>
                    <path d="M183.6 29.2c-5.2 1.8-10.1 4.7-14.1 8.5-4 3.6-7.6 7.5-10.9 11.8-6.1 8.5-11.3 17.6-15.3 27.3-8.4 19-12.9 57.3-15.2 77.6-2 20.3-2 40.8 0 61.2.4 5.1 1.1 10.1 1.7 15.2L132 246l2.9 15.1 3.4 15-2.4-15.1-2-15.2-1.7-15.2c-.4-5.1-.9-10.1-1.2-15.2-1.5-20.2-1.2-40.5.8-60.6s6.6-58.1 14.1-77c3.7-9.6 8.5-18.8 14.2-27.3 3-4.3 6.4-8.4 10.1-12.1 1.9-1.9 4-3.6 6.1-5.1 2.3-1.8 4.7-3.2 7.3-4.1zM347.2 250.1c-5.6-7.3-10.8-14.9-15.6-22.7-4.9-7.7-9.5-15.6-13.6-23.6-4.2-8-7.9-16.2-11.3-24.5-3.3-8.4-6.2-16.8-9.4-25.2-6.5-16.8-12.6-51.6-20.2-68-3.8-8.2-7.8-16.4-12.4-24.3-2.3-4-4.9-7.8-7.7-11.5-2.7-3.9-6.2-7.2-10.3-9.7 3.8 2.8 7 6.2 9.4 10.2 2.5 3.8 4.8 7.7 6.9 11.7 4.2 8 7.9 16.2 11.4 24.5 7 16.6 13.2 51.3 19.3 68.1 3.2 8.4 6.3 16.8 9.7 25.2 3.4 8.4 7.4 16.6 11.9 24.5 9 16.3 19.7 31.4 31.9 45.3z" class="st1" transform="translate(998 599.176) translate(7.324 0)"/>
                    <path d="M195.3 236.9c16.5 37 81 156.3 120.8 163.5 26.1 4.7 130.5-9.2 147.7-34.7 7.5-11.1-8.5-85.8-22.4-82.4-13.9 3.4-97.5 17.6-107.9 15-10.4-2.6-90.9-88.9-120.6-109.9-51.2-36.4-26.5 28.5-17.6 48.5z" class="st2" transform="translate(998 599.176) translate(7.324 0)"/>
                    <path d="M409.6 279l6.3 113.1s-82.5 18.1-118.5 5.7C253.7 382.7 189.7 247.3 180.9 225c-14.4-36.5-10.4-58.6 10-53.2 7.9 2 18.4 8.3 31.1 19.5 13.3 11.7 90 87.7 114.2 102 13.6 8.1 73.4-14.3 73.4-14.3z" class="st3" transform="translate(998 599.176) translate(7.324 0)"/>
                    <path d="M365.3 372.8c-2.2.8-4.3 1.9-6.2 3.3 2.3-.2 4.7-.7 6.9-1.5s4.3-1.9 6.2-3.3c-2.4.2-4.7.7-6.9 1.5zM303.2 284c-2.2.8-4.3 1.9-6.2 3.3 4.7-.4 9.2-2.1 13.1-4.8-2.4.1-4.7.6-6.9 1.5zm-62.7-53.6c-2.2.8-4.3 1.9-6.2 3.3 4.7-.4 9.2-2.1 13.1-4.8-2.4.1-4.7.6-6.9 1.5zm45.6 121.5c-2.2.8-4.3 1.9-6.2 3.3 4.7-.4 9.2-2.1 13.1-4.8-2.4.1-4.7.6-6.9 1.5zm72.9-43.6c-2.2.8-4.3 1.9-6.2 3.3 2.3-.2 4.7-.7 6.9-1.5s4.3-1.9 6.2-3.3c-2.4.2-4.7.7-6.9 1.5zm-109.5-19.7c-2.2.8-4.3 1.9-6.1 3.3 2.3-.2 4.7-.7 6.9-1.5s4.3-1.9 6.1-3.3c-2.4.1-4.7.6-6.9 1.5zm164 62.4c-.3-1-.6-2.1-.9-3.1-.8-2.2-1.9-4.3-3.3-6.2.2 2.3.7 4.7 1.5 6.9.7 2 1.7 3.9 2.8 5.6l-.1-3.2zm-86.7 6.3c-.8-2.2-1.9-4.3-3.3-6.2.2 2.3.7 4.7 1.5 6.9s1.9 4.3 3.3 6.2c-.1-2.4-.6-4.7-1.5-6.9zm-54.7-96.8c-.8-2.2-1.9-4.3-3.3-6.2.2 2.3.7 4.7 1.5 6.9s1.9 4.3 3.3 6.2c-.2-2.4-.7-4.7-1.5-6.9zM211.7 201c-.8-2.2-1.9-4.3-3.3-6.2.4 4.7 2.1 9.2 4.8 13.1-.1-2.4-.7-4.7-1.5-6.9zm85.4 184.8c-2.1-1-4.4-1.8-6.7-2.1 1.8 1.5 3.8 2.8 5.9 3.7 2.1 1 4.4 1.7 6.7 2.1-1.7-1.5-3.7-2.8-5.9-3.7zm75.2-46.5c-2.1-1-4.4-1.7-6.7-2.1 3.7 3 8 5 12.7 5.8-1.8-1.5-3.8-2.8-6-3.7zm-24.7 62.1c-2.1-1-4.4-1.7-6.7-2.1 1.1 1 2.4 1.9 3.7 2.6l3.6-.2-.6-.3zm-60.8-88.2c-2.1-1-4.4-1.7-6.7-2.1 3.6 3 8 5 12.7 5.8-1.9-1.6-3.9-2.8-6-3.7zm-92-79.9c-2.1-1-4.4-1.7-6.7-2.1 1.8 1.5 3.8 2.8 5.9 3.7 2.1 1 4.4 1.7 6.7 2.1-1.7-1.5-3.7-2.7-5.9-3.7zm57 98.5c-1 2.1-1.7 4.4-2.1 6.7 1.5-1.8 2.8-3.8 3.7-6 1-2.1 1.7-4.4 2.1-6.7-1.5 1.8-2.7 3.8-3.7 6zm-30.6-63.2c-1 2.1-1.7 4.4-2.1 6.7 1.5-1.8 2.8-3.8 3.7-6 1-2.1 1.7-4.4 2.1-6.7-1.5 1.8-2.7 3.8-3.7 6zm97.5 50.8c-1 2.1-1.7 4.3-2 6.7 1.5-1.8 2.8-3.8 3.7-5.9 1-2.1 1.7-4.4 2.1-6.7-1.5 1.6-2.8 3.7-3.8 5.9zM173.5 200.8c.2.8.3 1.7.5 2.6.7-1.7 1.2-3.5 1.5-5.4-.6.8-1.3 1.7-2 2.8z" class="st4" transform="translate(998 599.176) translate(7.324 0)"/>
                    <path d="M395.2 390.4c-1.4-16.7-4.8-85.1-4.5-100 0-1 .7-1.3.8-.2 5.5 49.9 3.8 83.7 4.4 100.1 0 .4-.7.5-.7.1z" class="st1" transform="translate(998 599.176) translate(7.324 0)"/>
                    <path d="M180.9 225c8.7 22.3 72.7 157.6 116.5 172.7 10.7 3.7 25.8 4.7 41.4 4.3L188.2 171.2c-3.6-.8-7.4 0-10.3 2.1-8.2 6.4-7.4 25.3 3 51.7z" class="st5" transform="translate(998 599.176) translate(7.324 0)"/>
                    <path d="M30.9 403.2l226.5-.6-12.5-77.9s17.9-21.7 14.5-45.3c-3.7-25.8-50.3-91.3-54.2-95-15.8-14.8-32.5-17.5-48.5-12.1C82.6 219 30.9 403.2 30.9 403.2z" class="st3" transform="translate(998 599.176) translate(7.324 0)"/>
                    <path d="M48.6 358.4c-1.3.5-2.6 1.1-3.8 1.7l-.5 1.3c1.7-.3 3.3-.8 4.9-1.4 2.2-.8 4.3-1.9 6.2-3.3-2.3.3-4.6.9-6.8 1.7zm81.8-148.7c-2.2.8-4.3 1.9-6.1 3.3 2.3-.2 4.6-.7 6.8-1.5s4.3-1.9 6.2-3.3c-2.3.2-4.6.7-6.9 1.5zm106.9 22c-1.1.5-2.1 1.2-3.1 1.9 1.3-.1 2.5-.3 3.8-.6-.2-.4-.5-.8-.7-1.3zM179 265.6c-2.2.8-4.3 1.9-6.2 3.3 4.7-.4 9.2-2.1 13.1-4.8-2.4.1-4.8.7-6.9 1.5zm-29.2 88.7c-2.2.8-4.3 1.9-6.2 3.3 2.3-.2 4.7-.7 6.9-1.5s4.3-1.9 6.1-3.3c-2.3.2-4.6.7-6.8 1.5zm99.7-65.8c-2.2.8-4.3 1.9-6.1 3.3 2.3-.2 4.7-.7 6.9-1.5s4.3-1.9 6.1-3.3c-2.4.2-4.7.7-6.9 1.5zm-148.6 4c-2.2.8-4.3 1.9-6.1 3.3 4.7-.4 9.2-2.1 13.1-4.8-2.5.1-4.8.6-7 1.5zm111.7 59.4c-2.2.8-4.3 1.9-6.2 3.3 2.3-.2 4.7-.7 6.9-1.5s4.3-1.9 6.2-3.3c-2.4.1-4.7.6-6.9 1.5zm-60.1-175.2l-.5-1.1c-.5.4-1 .7-1.5 1.1.1.2.2.5.2.7.8 2.2 1.9 4.3 3.3 6.2-.1-2.5-.6-4.7-1.5-6.9zM96 356.5c-.8-2.2-1.9-4.3-3.3-6.2.4 4.7 2.1 9.2 4.8 13.1-.1-2.4-.6-4.7-1.5-6.9zm81.4-35.4c-.8-2.2-1.9-4.3-3.3-6.1.4 4.7 2.1 9.2 4.8 13.1-.1-2.5-.6-4.8-1.5-7zm-28.8-76.4c-.8-2.2-1.9-4.3-3.3-6.2.5 4.7 2.1 9.2 4.8 13.1-.1-2.4-.6-4.7-1.5-6.9zm100.1 129.9c-.8-2.2-1.9-4.3-3.3-6.2.2 2.3.7 4.7 1.5 6.9s1.9 4.3 3.3 6.2c-.2-2.4-.7-4.7-1.5-6.9zM211.6 201c-.8-2.2-1.9-4.3-3.3-6.2.4 4.7 2.1 9.2 4.8 13.1-.1-2.4-.6-4.7-1.5-6.9zm-86.8 126.1c-2.1-1-4.4-1.7-6.7-2.1 3.7 3 8 5 12.7 5.8-1.9-1.5-3.9-2.7-6-3.7zm80.4 73.9c.8.7 1.6 1.3 2.5 1.8h3.6c-1.9-.9-4-1.5-6.1-1.8zM72.4 387.9c-2.1-1-4.4-1.7-6.7-2.1 1.8 1.5 3.8 2.8 6 3.7 2.1 1 4.4 1.7 6.7 2.1-1.9-1.5-3.9-2.8-6-3.7zm137.1-79.6c-2.1-1-4.4-1.7-6.7-2.1 1.8 1.5 3.8 2.8 5.9 3.7 2.1 1 4.4 1.7 6.7 2.1-1.7-1.5-3.7-2.7-5.9-3.7zm-14.7-75.1c-2.1-1-4.4-1.7-6.7-2.1 1.8 1.5 3.8 2.8 5.9 3.7 2.1 1 4.4 1.7 6.7 2.1-1.7-1.4-3.7-2.7-5.9-3.7zM106.6 254c-1 2.1-1.7 4.4-2.1 6.7 1.5-1.8 2.8-3.8 3.7-6 1-2.1 1.7-4.4 2.1-6.7-1.5 1.9-2.7 3.9-3.7 6zm71.1 123.2c-1 2.1-1.7 4.4-2.1 6.7 1.5-1.8 2.8-3.7 3.7-5.8 1-2.1 1.7-4.4 2.1-6.7-1.5 1.8-2.7 3.8-3.7 5.8zm43.5-108.7c-1 2.1-1.7 4.4-2.1 6.7 1.5-1.8 2.8-3.8 3.7-6 1-2.1 1.7-4.4 2.1-6.7-1.5 1.8-2.7 3.9-3.7 6zM124 383.6c-1 2.2-1.7 4.5-2.1 6.8 1.5-1.8 2.8-3.8 3.7-5.9 1-2.1 1.7-4.4 2.1-6.7-1.5 1.7-2.8 3.7-3.7 5.8zm-49.2-56.3c-1 2.1-1.7 4.4-2.1 6.7 3-3.6 5-8 5.8-12.7-1.5 1.8-2.8 3.8-3.7 6zm69.2-36.5c-1 2.1-1.7 4.4-2.1 6.7 1.5-1.8 2.8-3.8 3.7-5.9 1-2.1 1.7-4.4 2.1-6.7-1.5 1.7-2.7 3.7-3.7 5.9zm27.9-87c-1 2.1-1.7 4.4-2.1 6.7 1.5-1.8 2.8-3.8 3.7-5.9 1-2.1 1.7-4.4 2.1-6.7-1.5 1.8-2.7 3.8-3.7 5.9z" class="st4" transform="translate(998 599.176) translate(7.324 0)"/>
                    <path d="M229.7 216c4.4 7.3 9.2 14.3 13.8 21.5-1.9-5.1-3.7-10.2-5.7-15.2 0 0 0-.1.1-.1h.1c3.2 6 5.8 12.4 7.8 18.9 3.4 5.4 6.5 11 9.2 16.9 3.3 7 5.4 14.5 6.1 22.2.5 7.7-.6 15.5-3.2 22.8-3.1 8.4-6.9 16.5-11.5 24.2-.6 1-2 .1-1.5-.9 6.4-13.7 13.5-28.1 12.9-43.6-.6-15.7-7.8-29.7-14.8-43-4.1-8.1-8.7-16-13.8-23.5-.2-.2.4-.5.5-.2z" class="st1" transform="translate(998 599.176) translate(7.324 0)"/>
                    <path d="M301.3 386.6l-4.6 25.7h142.7c8.1-.3 15-6.1 16.6-14l2.1-11.7H301.3z" class="st6" transform="translate(998 599.176) translate(7.324 0)"/>
                    <path d="M285.2 398.3l2.1-11.7h28l-2.1 11.7c-1.6 7.9-8.4 13.7-16.5 14-3.5.1-6.9-1.4-9.2-4.1-2.1-2.8-3-6.4-2.3-9.9z" class="st7" transform="translate(998 599.176) translate(7.324 0)"/>
                    <path d="M347.7 203l-36.9 209.3h128.8c8.1-.3 14.9-6.1 16.5-14L492.9 189H364.2c-3.9.1-7.7 1.5-10.6 4.1-3.1 2.5-5.2 6-5.9 9.9z" class="st6" transform="translate(998 599.176) translate(7.324 0)"/>
                    <path d="M364.2 189l-7.4 42.3h156.7l5-28.2c1.4-6.2-2.4-12.3-8.6-13.7-1-.2-2-.3-3-.3l-142.7-.1z" class="st7" transform="translate(998 599.176) translate(7.324 0)"/>
                    <path d="M347.7 203l-5 28.2h28l5-28.2c1.4-6.2-2.4-12.3-8.6-13.7-1-.2-2-.3-3-.3-3.9.1-7.7 1.5-10.6 4.1-3 2.5-5.1 6-5.8 9.9z" class="st6" transform="translate(998 599.176) translate(7.324 0)"/>
                    <path d="M473.9 269.9c5.2 14.9 20.4 34.4 20.5 46.2.3 5.9-3.4 11.4-9 13.4 0 0 11 7 9.4 17.7-.8 5.5-10.4 9-10.4 9s8.6 6 6.5 15.4c-1.6 7.5-10.9 9.9-10.9 9.9s5.5 9.6 1.4 16.7c-8.3 14.4-73.9 7.5-81.4-17.7-3.5-11.8 12.4-9.2 12.4-9.2s-22-9.2-20.9-22.8c1.1-13.6 21.6-9 21.6-9s-21.2-9.1-18.7-23.1c2.7-14.5 22.4-6.4 22.4-6.4s-13.5-11.4-9.2-21.6c7.3-16.9 32.5 8 47.3 6.1l10.5-23 8.5-1.6z" class="st2" transform="translate(998 599.176) translate(7.324 0)"/>
                    <path d="M484.9 292c-3.7-14.6 15.5-30 13.9-44.4-2.1-19.5-25.6-3.1-33.3 24.1l-2.3 22.1 21.7-1.8z" class="st2" transform="translate(998 599.176) translate(7.324 0)"/>
                    <path d="M478.7 382.1c.1 0 .2.1.2.1 0 .1-.1.2-.1.2-22.1 3-47.3-.6-67.1-11.2-.7-.3-.4-1.5.4-1.3 22.5 7.1 43 11.6 66.6 12.2zM484.8 356.4c.3 0 .2.4 0 .5-22.8 2.9-51.1-1.8-72.5-16.8-.7-.5-.9-1.7 0-1.2 15 8.8 51.2 17 72.5 17.5zM415.6 308.5c21 13.5 44.3 19 69 21.1.3 0 .2.5 0 .5-12.4 2.2-27.9-.8-39.9-4.2-11.1-2.9-21.3-8.7-29.5-16.8-.4-.2 0-.9.4-.6z" class="st1" transform="translate(998 599.176) translate(7.324 0)"/>
                    <path d="M168 171.3c.3 4 14.8 31.7 32.5 33.6 5.8.6 10.5-30.7 10.5-30.7l.9-2.2 12.3-31.3-34.3-30.3-5-4.1s-2.8 8.8-6.1 19.7c-.2.5-.3 1-.5 1.5s-.4 1.2-.6 1.8c-.5 1.6-1 3.3-1.5 5-.4 1.3-.8 2.5-1.1 3.8-.4 1.4-.7 2.7-1.1 4-2.7 9.7-4.7 19.4-6 29.2z" class="st2" transform="translate(998 599.176) translate(7.324 0)"/>
                    <path d="M178.7 126.1c3.8 19.4 15.9 36.2 33.2 45.9l12.3-31.3-34.3-30.3-5-4.1c0 .1-2.8 8.9-6.2 19.8z" class="st1" transform="translate(998 599.176) translate(7.324 0)"/>
                    <path d="M278.6 103.5c-7.8 58.4-43.6 60.3-56.2 58.6-11.4-1.5-50.1-8.2-48.4-67.1 1.7-58.9 31.3-73.7 57.6-71.6s54.8 21.7 47 80.1z" class="st2" transform="translate(998 599.176) translate(7.324 0)"/>
                    <path d="M270.3 97.2c-1.3-.5-2.5-1-3.7-1.6-1.4-.4-2.6-1.2-3.5-2.4-.4-.9-.2-1.9.5-2.5 1.6-1 3.6-1.1 5.3-.2 1.8.6 3.3 1.9 4.2 3.6.5 1.1 0 2.5-1.1 3-.6.3-1.2.3-1.7.1zM230.8 87.2c1.4.1 2.7.1 4.1 0 1.4.2 2.9-.1 4.2-.8.7-.6.9-1.6.5-2.5-1.1-1.6-2.9-2.4-4.8-2.2-1.9-.1-3.8.5-5.2 1.7-.9.8-1 2.3-.1 3.2.3.3.8.6 1.3.6zM237 100.1c0-.2-.3.1-.4.3-.6 4-1.9 8.4-5.7 9.1-.1 0-.1.2 0 .2 4.5.2 6.2-5.8 6.1-9.6z" class="st1" transform="translate(998 599.176) translate(7.324 0)"/>
                    <path d="M234.2 95.3c-6.3-1.6-9.1 11-3.2 12.5 5.8 1.5 8.5-11.1 3.2-12.5z" class="st1" transform="translate(998 599.176) translate(7.324 0)"/>
                    <path d="M231.6 95.4c-1.3.5-2.6 1.5-4 1.3-1.5-.2-2.5-1.8-3.2-3.3-.1-.2-.2-.1-.2.1-.6 2.4-.2 5.1 2.3 6 2.3.9 4.5-.9 5.6-3.2.3-.3 0-1.1-.5-.9zM260.4 103.8c0-.1.3.3.2.4-1 3.9-1.5 8.5 1.7 10.6.1.1 0 .3-.1.2-4.2-1.6-3.4-7.8-1.8-11.2z" class="st1" transform="translate(998 599.176) translate(7.324 0)"/>
                    <path d="M264.8 100.4c6.4 1 4 13.7-1.9 12.8-5.9-.9-3.4-13.6 1.9-12.8z" class="st1" transform="translate(998 599.176) translate(7.324 0)"/>
                    <path d="M267.3 101.8c.9.9 1.6 2.3 2.8 2.6s2.7-.8 3.8-2c.1-.1.2 0 .2.2-.4 2.5-1.7 4.8-4.1 4.9-2.4 0-3.4-2.4-3.5-4.9 0-.6.4-1.2.8-.8zM230.8 133.8c.7 1.1 1.3 2.7 2.7 3.1 1.4.4 2.9.4 4.4.2.1 0 .2 0 .2.1s0 .1-.1.2c-1.6 1.2-3.7 1.5-5.5.8-1.5-.8-2.3-2.5-2.1-4.2 0-.3.3-.3.4-.2zM250.2 123.1s-.4 6-1 8.8c0 .3-.8.2-1.7.1h-.1c-5-.1-9.5-3.1-11.7-7.6-.1-.1 0-.3.1-.4.1-.1.3 0 .4.1 3 3.2 7 5.2 11.3 5.9.4-.7.4-10.3.8-10.3 2.1.6 4.1 1.5 6 2.7 1.2-12.5.4-25.2 1.8-37.6 0-.2.2-.4.4-.4s.4.2.4.4c1.8 13.2.7 27.6-.3 40.6-.2 1.6-5.4-1.6-6.4-2.3z" class="st1" transform="translate(998 599.176) translate(7.324 0)"/>
                    <path d="M178.1 95.8c13.5 2.8 17.5-18.6 17.5-18.6s15.6 1.5 21.5-22.9c0 0 4.5 16.4 24.6 23.5 4.3 1.5-8.2-12.8-8.2-12.8S248 84.4 282 84.7c2.4 0 6.9-35.7-16.5-52.5-20.4-15.3-48.5-15.8-69.6-1.2 0 0-18.4 6.5-24 23.9-5.5 17.4 1 39.9 6.2 40.9z" class="st1" transform="translate(998 599.176) translate(7.324 0)"/>
                    <path d="M223 122.5c-10.4-2.9-16.5-13.7-13.6-24.1s13.7-16.5 24.1-13.6c8.6 2.4 14.5 10.3 14.3 19.2-.3 10.8-9.2 19.3-19.9 19.1-1.6 0-3.3-.2-4.9-.6zm9.9-35.2c-7.1 0-12.9 5.8-12.9 12.9s5.8 12.9 12.9 12.9c7.1 0 12.9-5.8 12.9-12.9 0-7.1-5.8-12.9-12.9-12.9zM267.5 129.2c-7.2-2-11.7-11.2-10.1-21.3.7-4.8 2.8-9.3 6.1-12.9 4.3-5.1 12-5.8 17.2-1.5 1.5 1.3 2.7 2.9 3.4 4.7 2.1 4.4 2.8 9.3 2 14.1-1.7 10.6-9.5 18.3-17.4 17-.4.1-.8 0-1.2-.1zm7.9-35.6c-.3-.1-.6-.2-1-.2-3.4-.4-6.7.9-9 3.4-3 3.1-4.9 7.1-5.5 11.4-1.4 9.2 2.7 17.5 9.2 18.6 6.5 1 13-5.7 14.4-14.9.7-4.3.2-8.6-1.7-12.6-1.2-2.6-3.6-4.8-6.4-5.7z" class="st7" transform="translate(998 599.176) translate(7.324 0)"/>
                    <path d="M246.9 106.2l-1.4-2.2c3.3-2 10.6-4.2 14.5 1.5l-2.2 1.5c-3.4-5.2-10.6-1-10.9-.8zM160.1 97.6l-2.1-1.5c.7-1 7.2-9.6 13.1-9.6 5.5 0 39.6 8.7 41 9l-.7 2.5c-9.8-2.5-36.1-9-40.4-9-3.8.2-9.2 6.3-10.9 8.6z" class="st7" transform="translate(998 599.176) translate(7.324 0)"/>
                    <path d="M182.7 100.8s-8.6-20.7-17.7-18.1c-9.1 2.7-5.5 30.8 3.3 36.5 4.4 3.3 10.6 2.4 13.9-2 .1-.1.2-.2.2-.3l.3-16.1z" class="st2" transform="translate(998 599.176) translate(7.324 0)"/>
                    <path d="M166.3 90.8c-.1 0-.1 0-.2.1 0 0 0 .1.1.1 6.1 4.2 8.2 11.2 9.3 18.2-1.4-2.9-3.8-4.9-7.7-3.2-.1.1-.1.2-.1.3 0 .1.1.1.2.1 2.6-.2 5 1.2 6.1 3.6.9 1.9 1.5 3.9 2 6 .2.7 1.3.6 1.3-.2v-.2c1.9-8.5-2.1-21.9-11-24.8z" class="st1" transform="translate(998 599.176) translate(7.324 0)"/>
                    <path d="M210.5 175.2l-8.2 26.9-35.1-30.1-8.3 11.3s36.1 49.6 36.1 47.2l8.8-23.3 16.9 14.3-4.6-39.1-5.6-7.2z" class="st7" transform="translate(998 599.176) translate(7.324 0)"/>
                    <path d="M219.4 202.1c-1-6.4-1.8-12.9-3.1-19.3 0-.2-.4-.3-.5 0-.8 6.3 3.1 30.9 3.6 36.8-.7-.6-15.5-12.5-15.6-12.3-2 3.8-8.5 20.8-8.9 22.3-5.7-7.9-29.7-38.8-36.3-46.2-.1-.1-.2-.1-.3 0-.1.1-.1.2 0 .2 5.2 8.4 36.3 49.3 36.6 49.1 3.5-8.1 6.6-16.3 9.2-24.7 2.6 2.6 17.6 16.2 17.6 15.2-.4-7-1.1-14.1-2.3-21.1z" class="st1" transform="translate(998 599.176) translate(7.324 0)"/>
                    <path d="M156.4 226.4c-13.6 58.8-52.3 124.5-76.7 143.8-14.9 11.8-62.6 11.9-64.7-19s91.5-127.6 105.3-146.4 48.4-31.4 36.1 21.6z" class="st2" transform="translate(998 599.176) translate(7.324 0)"/>
                    <path d="M156.4 226.4c-13.6 58.8-52.3 124.5-76.7 143.8-14.9 11.8-62.6 11.9-64.7-19s91.5-127.6 105.3-146.4 48.4-31.4 36.1 21.6z" class="st3" transform="translate(998 599.176) translate(7.324 0)"/>
                    <path d="M48.6 358.4c-2.2.8-4.3 1.9-6.1 3.3 2.3-.2 4.6-.7 6.8-1.5s4.3-1.9 6.2-3.3c-2.3.2-4.7.7-6.9 1.5zm81.8-148.7c-2.2.8-4.3 1.9-6.1 3.3 2.3-.2 4.6-.7 6.8-1.5s4.3-1.9 6.2-3.3c-2.3.2-4.6.7-6.9 1.5zm-29.5 82.8c-2.2.8-4.3 1.9-6.1 3.3 4.7-.4 9.2-2.1 13.1-4.8-2.4.1-4.8.6-7 1.5zm-23.3-26.3c-.8-2.2-1.8-4.4-3.2-6.3.2 2.3.7 4.7 1.5 6.9s1.9 4.3 3.3 6.2c-.2-2.3-.8-4.6-1.6-6.8zm-38.1 58.5c-.8-2.2-1.9-4.3-3.3-6.2.4 4.7 2.1 9.2 4.8 13.1-.2-2.4-.7-4.7-1.5-6.9zm53.3 25.6c.1 1.9.5 3.7 1.1 5.5l1.2-1.5c-.7-1.5-1.4-2.8-2.3-4zm55.8-105.6c-.8-2.2-1.9-4.3-3.3-6.2.2 2.3.7 4.6 1.5 6.8.7 1.9 1.6 3.6 2.6 5.3.1-.4.3-.8.4-1.2-.2-1.6-.6-3.2-1.2-4.7zm-87 49.1c-2.1-1-4.4-1.7-6.7-2.1 1.8 1.5 3.8 2.8 5.9 3.7 2.1 1 4.4 1.7 6.7 2.1-1.7-1.5-3.7-2.7-5.9-3.7zm45-39.8c-1 2.1-1.7 4.4-2.1 6.7 1.5-1.8 2.8-3.8 3.7-6 1-2.1 1.7-4.4 2.1-6.7-1.5 1.8-2.7 3.9-3.7 6zm-31.8 73.2c-1 2.1-1.7 4.4-2.1 6.7 3-3.6 5-8 5.8-12.7-1.5 1.9-2.8 3.9-3.7 6zM16 347.8c-.4.9-.8 1.8-1.1 2.8v.6c0 .6.1 1.2.2 1.9 1-1.4 1.8-2.9 2.5-4.5 1-2.1 1.7-4.4 2.1-6.7-1.5 1.8-2.7 3.8-3.7 5.9z" class="st4" transform="translate(998 599.176) translate(7.324 0)"/>
                    <path d="M38.4 374.7c6.4 1 13 1.1 19.4.1 6.3-1 12.4-3.2 17.9-6.4 11.7-6.7 19.5-18.1 26.4-29.3 7.6-12.3 14.8-24.8 21.5-37.7 6.7-12.8 12.8-25.9 18.7-39.1 3-6.7 5.7-13.4 8.5-20.1 2.8-6.7 5.5-13.3 8-20.1l1.8-5.1c0-.1.1-.1.2-.1s.1.1.1.2c-2.2 7-4.3 14.1-6.7 21.1-.3.9-.6 1.8-1 2.7 2.5-5.3 5-10.5 7.7-15.7.2-.3.6 0 .5.3-2.4 5.4-4.8 10.7-7.3 16-1.2 2.6-2.5 5.2-3.8 7.8-1.2 3.2-2.4 6.5-3.7 9.7-5.5 13.7-11.6 27.2-18.3 40.3s-13.9 26-21.7 38.6c-7.1 11.6-14.7 23.5-26.2 31.3-11 7.4-24.5 10.1-37.5 7.6-1.6-.3-3.1-.8-4.6-1.3-.2-.1-.2-.3-.1-.4 0-.3.1-.4.2-.4z" class="st1" transform="translate(998 599.176) translate(7.324 0)"/>
                    <path d="M61.2 138.8c9.7-23.7 25.5-56.2 36.1-61.1 11.2-5.2 51.1-21.7 61.6-22.6 10.5-.9 47.9 10.1 54.6 16.7 5.4 5.3-4 17.9-25.2 16.1-19.9-1.7-24.5-3.1-30.3-2.2s-22.9 14.7-21.4 23.1c.9 5 12.5 13.5 21.5 11.9 9-1.5 14.4-10.3 25.5-15.5 11.1-5.1 27.1 0 26.9 4.6-.2 4.6-6.1 5.3-18.2 18-7.8 8.2-13.4 24.4-29.7 37.7-8.2 6.7-24.4 25.9-24.4 25.9l-77-52.6z" class="st2" transform="translate(998 599.176) translate(7.324 0)"/>
                    <path d="M97.3 77.7c11-10.3 36.6-27.2 58.4-29.7 14.7-1.7 55 32.6 51.3 41-3.6 8.4-11.5 6.5-22.8 2.1-4.1-1.5-24.5-15.4-29.5-11.7-7.2 5.3-20.2 26.7-20.2 26.7L97.3 77.7z" class="st2" transform="translate(998 599.176) translate(7.324 0)"/>
                    <path d="M206.9 85.4c-3.3-10.9-14.5-19.1-25.9-26.3-.2-.1-.4.2-.2.3 2.9 1.8 20.8 16.4 25.9 26.1 0 .1.2 0 .2-.1z" class="st1" transform="translate(998 599.176) translate(7.324 0)"/>
                    <path d="M97.3 77.7c11-10.3 36.6-27.2 58.4-29.7 14.7-1.7 43.7 36.4 40.1 44.8s-15.1 6.2-26.5-1.3c-3.7-2.5-14.8-15.5-19.8-11.7-7.3 5.3-25 18.7-25 18.7L97.3 77.7z" class="st2" transform="translate(998 599.176) translate(7.324 0)"/>
                    <path d="M135.1 90.1c1.7-1.5 2.4-2.2 4.1-3.8 1.8-1.6 3.6-3.1 5.5-4.6 1.5-1.4 3.3-2.5 5.2-3.3 1.9-.5 4-.4 5.8.3 4.2 1.5 7.4 5.3 10.6 8.3 3.5 3.4 11 9.4 17.7 10.4 1.8.4 3.7.4 5.5 0 1.4-.2 2.6-.8 3.7-1.7 4-4.1 1.9-10.4-.7-15.3-4.9-9-12.6-16.5-20.2-23-1.9-1.6-3.8-3.2-5.7-4.7-2.1-1.9-4.6-3.4-7.3-4.3-4.5-1.2-13.1 1.5-15.8 2.3-.2 0-.3-.3 0-.3 3.2-1 11.6-4.9 18.8-2.6 2.6 1.1 4.9 2.6 6.9 4.5 2.2 1.7 4.5 3.6 6.6 5.5 4.2 3.6 8.2 7.6 11.8 11.8 3.7 4 6.6 8.6 8.6 13.7 1.7 4.5.7 9.6-2.6 13.2-2.9 2.8-7.3 2.5-9.3 2.3-2-.3-3.9-.8-5.7-1.5-4-2-7.9-4.3-11.6-6.9-3.6-2.6-6.4-6.1-10.2-8.5-1.8-1.2-3.9-1.6-6-1.1-2 .7-3.8 1.7-5.5 2.9-3.4 2-6.6 4.3-9.6 6.8-.8.7-1.3.3-.6-.4z" class="st1" transform="translate(998 599.176) translate(7.324 0)"/>
                    <path d="M88.8 86.9c4.4-5.1 15.3-27.9 21.9-34.1s34.3-26.2 43.9-22.6c12.1 4.6-6.7 23.7-15.5 31.2C130.2 69 127.3 85 127.3 85l-38.5 1.9z" class="st2" transform="translate(998 599.176) translate(7.324 0)"/>
                    <path d="M152.1 48.6c-3.1 2.3-5.9 5-8.8 7.7-2.8 2.4-5.5 4.9-7.9 7.7-2.2 2.9-3.9 6.1-5.1 9.6-.6 1.7-1.1 3.4-1.5 5.1-.4 1.7-.8 3.8-1.4 5.7 0 .2.2.3.3.1 1.1-3.4 2.5-6.7 4-10 1.5-3.4 3.5-6.5 5.8-9.5 4.6-5.8 10.3-10.5 15-16.2.2-.1-.1-.4-.4-.2zM153.6 120.8c4.1.2 8.2-1.1 11.3-3.8 2.9-2.2 5.7-4.6 8.7-6.8 2.9-2.3 6-4.2 9.4-5.6 3.9-1.2 8-1.9 12.1-2 4-.4 8 .2 11.6 1.7 3 1.4 6.1 4.5 4.5 8.1-.8 1.6-2 3.1-3.3 4.3-1.3 1.2-2.7 2.4-4.1 3.4-2.9 2.1-6 4-8.8 6.4-3.4 3.4-6.4 7.3-8.8 11.5-1 1.5-7.4 11.6-9.8 15-2 2.9-4.3 5.6-6.8 8.2-2.5 2.3-5.1 4.4-7.8 6.4-3 2.1-5.7 4.6-8.2 7.3-.1.1-.3 0-.2-.2 3.1-5.6 8.7-9.4 13.8-13.2 6.5-4.8 21.1-29.9 23.7-33.3 4.4-5.7 11-8.4 16-13.3 1.1-1.1 2.9-2.7 2.9-4.5-.3-1.7-1.5-3.2-3.1-3.8-3.6-1.5-7.6-2-11.4-1.3-3.9.2-7.8.8-11.6 1.9-3.3 1.2-6.4 2.8-9.3 4.9-3.3 2.3-6.4 4.6-9.9 6.7-3.3 2.2-7.2 3-11.1 2.5 0-.3.1-.5.2-.5zM207.4 68.8c-2.6-1.3-5.2-2.7-7.9-3.9v-.1c3.2 1.3 6.4 2.3 9.6 3.5 2.7.7 4.9 2.6 6.1 5 .8 2.5.2 5.3-1.5 7.2-1.9 2-4.3 3.6-6.9 4.7-.1.1-.2-.1-.1-.2 3.8-2.2 9.7-6.7 6.6-11.7-1.5-2-3.6-3.6-5.9-4.5zM194.6 94.2c3.1.3 6.2-.2 9-1.5 1.8-1 3-2.8 3.3-4.8.2-.7.1-1.5-.3-2.2-.1-.2.2-.3.2-.1.1.4.3.8.5 1.2.1.3.2.7.2 1 .1.7 0 1.4-.2 2.1-.4 1.5-1.4 2.8-2.7 3.7-3 1.9-6.8 2.2-10.1.9-.1 0-.1-.1-.1-.2.1 0 .2-.1.2-.1z" class="st1" transform="translate(998 599.176) translate(7.324 0)"/>
                    <path d="M138.2 191.6c-6.5 23.6-56.2 149.2-70 166.9-13.8 17.7-47.3 21.6-56.7-10.5s39.4-185.2 49.7-209.2c5.7-13.3 79.3 44.3 77 52.8z" class="st2" transform="translate(998 599.176) translate(7.324 0)"/>
                    <path d="M149 207.5L51.6 151S9.9 293.9 9.2 338c-.5 31.6 37.4 55.3 67.3 12.5s72.5-143 72.5-143z" class="st3" transform="translate(998 599.176) translate(7.324 0)"/>
                    <path d="M54.6 152.8c-1.5 1.8-2.7 3.7-3.6 5.8-1 2.1-1.7 4.4-2.1 6.7 1.5-1.8 2.8-3.8 3.7-5.9 1-2.1 1.7-4.3 2.1-6.5l-.1-.1zM23.2 289.1c-1 2.1-1.7 4.4-2.1 6.7 1.5-1.8 2.8-3.8 3.7-5.9 1-2.1 1.7-4.4 2.1-6.7-1.5 1.7-2.7 3.7-3.7 5.9zM16 347.8c-1 2.1-1.7 4.4-2.1 6.7 1.5-1.8 2.8-3.8 3.7-6 1-2.1 1.7-4.4 2.1-6.7-1.5 1.9-2.7 3.9-3.7 6zm58.8-20.6c-1 2.1-1.7 4.4-2.1 6.7 3-3.6 5-8 5.8-12.7-1.5 1.9-2.8 3.9-3.7 6zm32.7-143.7v.4l.3-.3-.3-.1zm-.9 70.6c-1 2.1-1.7 4.4-2.1 6.7 1.5-1.8 2.8-3.8 3.7-6 1-2.1 1.7-4.4 2.1-6.7-1.5 1.8-2.7 3.8-3.7 6zm-44.9-16c-1 2.1-1.7 4.4-2.1 6.7 3-3.6 5-8 5.8-12.7-1.5 1.8-2.7 3.8-3.7 6zm33.4-16.9c-2.1-1-4.4-1.7-6.7-2.1 1.8 1.5 3.8 2.8 5.9 3.7 2.1 1 4.4 1.7 6.7 2-1.8-1.5-3.8-2.7-5.9-3.6zm-33.5 72.6c-2.1-1-4.4-1.7-6.7-2.1 1.8 1.5 3.8 2.8 5.9 3.7 2.1 1 4.4 1.7 6.7 2.1-1.7-1.5-3.7-2.7-5.9-3.7zM47.1 204c-2.1-1-4.4-1.7-6.7-2.1 3.6 3 8 5 12.7 5.8-1.9-1.4-3.9-2.7-6-3.7zm-7.7 120.7c-.8-2.2-1.9-4.3-3.3-6.2.4 4.7 2.1 9.2 4.8 13.1-.1-2.4-.6-4.7-1.5-6.9zm38.2-58.5c-.8-2.2-1.8-4.4-3.2-6.3.2 2.3.7 4.7 1.5 6.9s1.9 4.3 3.3 6.2c-.2-2.3-.8-4.6-1.6-6.8zm23.3 26.4c-2.2.8-4.3 1.9-6.1 3.3 4.7-.4 9.2-2.1 13.1-4.8-2.4 0-4.8.6-7 1.5zm-65-34.2c-2.2.8-4.3 1.9-6.1 3.3 2.3-.2 4.6-.7 6.9-1.5 2.2-.8 4.3-1.9 6.1-3.3-2.4.1-4.7.6-6.9 1.5zM74 186.9c-2.2.8-4.3 1.9-6.2 3.3 2.3-.2 4.7-.7 6.9-1.5s4.3-1.9 6.2-3.3c-2.4.2-4.7.7-6.9 1.5zm56.4 22.8c-2.2.8-4.3 1.9-6.1 3.3 2.3-.2 4.6-.7 6.8-1.5s4.3-1.9 6.2-3.3c-2.3.2-4.6.7-6.9 1.5zM48.6 358.4c-2.2.8-4.3 1.9-6.1 3.3 2.3-.2 4.6-.7 6.8-1.5s4.3-1.9 6.2-3.3c-2.3.1-4.7.7-6.9 1.5z" class="st4" transform="translate(998 599.176) translate(7.324 0)"/>
                    <path d="M135.7 224.9c-14.7-7.9-73.9-42.5-86.2-50.8-.9-.6-.7-1.3.3-.8 44.8 22.6 72.1 42.4 86.3 51 .2.1.2.3.1.5-.1.1-.4.1-.5.1z" class="st1" transform="translate(998 599.176) translate(7.324 0)"/>
                    <path d="M104.5 300.6c10.3-19.3 20.2-38.8 29.1-58.8 2.5-5.6 4.9-11.2 7.3-16.9 2.3-5.4 4.6-10.9 6.7-16.4-2-1.4-11-7.3-12-8.2-.1-.2-.1-.4 0-.6.1-.1.3-.1.4-.1 1.2.5 11.6 6.5 13.8 8.1.3.2-4.1 11-6.1 16.1-2 5.2-4.1 10.3-6.2 15.3-4.3 10.1-8.7 20.1-13.5 29.9-5.1 10.6-10.4 21.1-16.1 31.4-5 9.1-16.7 25.1-3.4.2z" class="st1" transform="translate(998 599.176) translate(7.324 0)"/>
                </g>
                <g>
                    <path fill="#DD6A57" d="M350.9 279.1s19.1 2.6 19.8-10.6c.7-13.2-18.6-12.6-18.6-12.6l-1.2 23.2z" transform="translate(998 599.176) translate(154.368 180.89)"/>
                    <path d="M273.1 196.1H296.40000000000003V331.6H273.1z" class="st3" transform="translate(998 599.176) translate(154.368 180.89) matrix(5.373029e-02 -0.9986 0.9986 5.373029e-02 5.8569 533.9991)"/>
                    <path d="M336.8 264.8H363.90000000000003V270.2H336.8z" class="st9" transform="translate(998 599.176) translate(154.368 180.89) matrix(5.373029e-02 -0.9986 0.9986 5.373029e-02 64.4918 602.9711)"/>
                    <path d="M330.9 264.4H358V269.79999999999995H330.9z" class="st9" transform="translate(998 599.176) translate(154.368 180.89) matrix(5.373029e-02 -0.9986 0.9986 5.373029e-02 59.1939 596.7164)"/>
                    <path d="M217.6 248.6l-17.2 7.8-5.7 2.6 5.4 3.2 16.2 9.6 3.5-2.2-3.2-2.5 3.5-2.2-3.2-2.5 3.5-2.1-3.2-2.5 3.5-2.1-3.2-2.5 3.5-2.1-3.4-2.5z" class="st7" transform="translate(998 599.176) translate(154.368 180.89)"/>
                    <path d="M200.4 256.4l-5.7 2.6 5.4 3.2.3-5.8z" class="st9" transform="translate(998 599.176) translate(154.368 180.89)"/>
                </g>
                <g>
                    <path d="M215.9 241.7l19.8 51.3H54.6l21.7-51.2 139.6-.1z" class="st3" transform="translate(998 599.176) translate(43.274 175.427)"/>
                    <path d="M217.4 245.4l18.4 47.5v8.7H54.6V293l20.1-47.5 142.7-.1z" class="st3" transform="translate(998 599.176) translate(43.274 175.427)"/>
                    <path d="M215.9 241.7l19.8 51.3H54.6l21.7-51.2 139.6-.1z" class="st5" transform="translate(998 599.176) translate(43.274 175.427)"/>
                    <path d="M124.8 279.2l-1.1 9.9h-22l2.1-9.9h21zM126.1 268l-1.1 9.9h-20.9l2.1-9.9h19.9z" class="st4" transform="translate(998 599.176) translate(43.274 175.427)"/>
                    <path d="M127.4 256.9l-1.1 9.9h-19.8l2.1-9.9h18.8zM128.7 245.7l-1.1 9.8h-18.7l2.1-9.9h17.7z" class="st3" transform="translate(998 599.176) translate(43.274 175.427)"/>
                    <path d="M148.9 279.2v9.9h-22l1-9.9h21zM149 268v9.9h-20.9l1-9.9H149zM149 256.9v9.8h-19.8l1-9.8H149z" class="st9" transform="translate(998 599.176) translate(43.274 175.427)"/>
                    <path d="M149.1 245.7v9.9h-18.7l1-9.8 17.7-.1z" class="st4" transform="translate(998 599.176) translate(43.274 175.427)"/>
                    <path d="M173.1 279.2l1.1 9.9h-22l-.1-9.9h21zM171.8 268l1.1 9.8H152l-.1-9.9h19.9zM170.5 256.9l1.1 9.9h-19.8l-.1-9.8 18.8-.1z" class="st9" transform="translate(998 599.176) translate(43.274 175.427)"/>
                    <path d="M169.2 245.7l1.1 9.9h-18.7l-.1-9.9h17.7z" class="st4" transform="translate(998 599.176) translate(43.274 175.427)"/>
                    <path d="M197.2 279.2l2.3 9.9h-22l-1.3-9.9h21zM194.6 268l2.3 9.9H176l-1.3-9.8 19.9-.1zM192.1 256.9l2.3 9.9h-19.8l-1.3-9.9h18.8z" class="st9" transform="translate(998 599.176) translate(43.274 175.427)"/>
                    <path d="M189.5 245.7l2.3 9.9h-18.7l-1.3-9.9h17.7z" class="st4" transform="translate(998 599.176) translate(43.274 175.427)"/>
                    <path d="M221.3 279.2l3.4 9.8h-22l-2.4-9.9h21zM217.5 268l3.4 9.9H200l-2.4-9.9h19.9z" class="st9" transform="translate(998 599.176) translate(43.274 175.427)"/>
                    <path d="M213.6 256.8l3.4 9.9h-19.8l-2.4-9.9h18.8zM209.8 245.7l3.4 9.9h-18.7l-2.4-9.9h17.7z" class="st4" transform="translate(998 599.176) translate(43.274 175.427)"/>
                    <path d="M111.2 285.6c-.9 0-1.5-.3-1.5-.7 0-.4.9-.7 1.7-.7.9 0 1.5.3 1.5.7 0 .4-.9.7-1.7.7zm.1-1c-.5 0-.9.1-1 .3 0 .2.4.3.9.3s.9-.1 1-.3c0-.2-.4-.3-.9-.3zm4.1.5l-5.3-1.9c-.1 0-.1 0-.1-.1s.2-.2.4-.2h.2l5.3 1.9c.1 0 .1.1.1.1s-.2.2-.4.2h-.2zm-.7-1.3c-.9 0-1.5-.3-1.5-.7 0-.4.8-.7 1.7-.7.9 0 1.5.3 1.5.7 0 .5-.9.7-1.7.7zm.1-1c-.5 0-.9.1-1 .3s.4.3.8.3c.5 0 .9-.1 1-.3.1-.1-.3-.3-.8-.3zM116.2 264.3c-1.6 0-2.8-.7-2.6-1.5.1-.4.4-.8.8-.9.2-.1.4-.1.6 0 .2.1.2.2 0 .3-.3.1-.5.4-.6.7 0 .3.2.6.5.7.4.2.9.3 1.4.3.5 0 1-.1 1.5-.3.3-.1.6-.4.7-.7 0-.3-.1-.5-.3-.7-.1-.1-.1-.2.1-.3.2-.1.4-.1.6 0 .3.2.5.6.5.9-.1.8-1.5 1.5-3.2 1.5zM119.2 260.9h-4.7c-.2 0-.4-.1-.4-.2l.2-1.3c0-.1.2-.2.5-.2s.4.1.4.2l-.2 1.1h1.5l.2-.9c0-.1.2-.2.5-.2s.4.1.4.2l-.2.9h1.5l.2-1.1c0-.1.2-.2.5-.2s.4.1.4.2l-.2 1.3c-.1.2-.3.3-.6.2zM118.3 251.9c-1.5 0-2.6-.7-2.5-1.5.1-.4.4-.8.8-.9.2-.1.4-.1.6 0 .2.1.2.2 0 .3-.3.1-.5.4-.5.7 0 .3.1.6.4.7.4.2.8.3 1.3.3s.9-.1 1.4-.3c.3-.1.6-.4.7-.7 0-.3-.1-.5-.3-.7-.1-.1 0-.2.1-.3.2-.1.4-.1.6 0 .3.2.5.6.5.9-.2.8-1.5 1.5-3.1 1.5z" class="st9" transform="translate(998 599.176) translate(43.274 175.427)"/>
                    <path d="M135.8 283.2l5.2 1c.2 0 .3.1.3.2v.1c-.2.1-.4.2-.7.1l-4.6-.9v1.1c0 .1-.2.2-.5.2s-.5-.1-.5-.2l.1-1.4.1-.1h.6v-.1zM139.7 272.1c1.1 0 2 .5 2 1s-.9 1-2.1 1c-.6 0-1.2-.1-1.7-.5-.3.1-.6.1-.8.1-.8 0-1.4-.3-1.4-.7s.7-.7 1.4-.7c.3 0 .6 0 .8.1.6-.2 1.2-.4 1.8-.3zm0 .4c-.6 0-1.1.2-1.1.5s.5.5 1.1.5 1.1-.2 1.1-.5c0-.2-.5-.5-1.1-.5zm-2.6.8c.3 0 .5-.1.5-.2s-.2-.2-.5-.2-.5.1-.5.2c.1.1.3.1.5.2zM138.4 262.8c-1.1 0-1.9-.5-1.9-1s.8-.9 1.8-1h.5c.5 0 1.1 0 1.6.1s1 .3 1.4.5c.2.1.3.4.4.6 0 .1-.2.2-.5.2s-.4-.1-.5-.2c0-.2-.1-.3-.2-.4l-.6-.3h-.2c.1.1.1.2.1.4.1.7-.8 1.1-1.9 1.1zm0-.4c.6 0 1.1-.2 1.1-.6 0-.3-.5-.5-1-.5s-1.1.2-1.1.5.4.6 1 .6z" class="st4" transform="translate(998 599.176) translate(43.274 175.427)"/>
                    <path d="M140 251.5c-.2 0-.5-.1-.5-.2V250c0-.1.2-.2.5-.2.2 0 .4.1.4.2v1.3c0 .1-.2.2-.4.2z" class="st9" transform="translate(998 599.176) translate(43.274 175.427)"/>
                    <path d="M164.1 283c.3 0 .5.1.5.2h.7c.3 0 .5.1.5.2s-.2.2-.5.2h-.7l.1 1.3c0 .1 0 .1-.1.1-.2.1-.5.1-.7 0l-4.2-1.5h3.9c0-.4.2-.5.5-.5zm-2.7.7l2.3.8v-.8h-2.3zM161.3 272.4c.5-.2 1-.3 1.5-.3s1 .1 1.5.3c.4.2.6.5.7.7 0 .3-.2.5-.6.7-.2.1-.5.1-.7 0-.2-.1-.2-.2 0-.3.2-.1.3-.2.3-.4s-.2-.3-.4-.4c-.3-.1-.5-.2-.8-.2-.3 0-.6 0-.8.2-.2.1-.3.2-.3.4 0 .1.1.3.4.4.2.1.2.2 0 .3h-.4l-2.2-.1c-.1 0-.2 0-.3-.1v-1.3c0-.1.2-.2.5-.2s.5.1.5.2v1h.8c-.1-.1-.1-.2-.1-.3-.2-.1 0-.4.4-.6zM162.1 260.8c1.1 0 2 .5 2 1s-.7.9-1.7 1h-.5c-.6 0-1.1 0-1.7-.2-.5-.1-1-.2-1.4-.5-.2-.1-.4-.4-.4-.6 0-.1.2-.2.4-.2s.5.1.5.2c0 .2.1.3.2.4.2.1.4.2.6.2h.2c-.1-.1-.2-.2-.2-.4.1-.4.9-.9 2-.9zm0 .5c-.6 0-1 .2-1 .5s.5.5 1.1.5 1-.2 1-.5c-.1-.3-.5-.5-1.1-.5z" class="st4" transform="translate(998 599.176) translate(43.274 175.427)"/>
                    <path d="M161 251.4c0 .1-.2.2-.4.2s-.4-.1-.4-.2l-.1-1.7c0-.1.2-.2.4-.2s.4.1.4.2l.1 1.7zm-2-1.1c.3 0 .5.1.5.3s-.2.3-.5.3-.5-.1-.5-.3c0-.2.2-.3.5-.3zm3 0c.3 0 .5.1.5.3s-.2.3-.5.3-.5-.1-.5-.3c0-.2.3-.3.5-.3z" class="st9" transform="translate(998 599.176) translate(43.274 175.427)"/>
                    <path d="M184.7 283.7h5.3c.3 0 .5.1.5.2s-.2.2-.5.2h-4.5l.2.2.1.1s0 .2-.2.2c-.2.1-.5.1-.7 0l-.7-.5h.4l.1-.4zM187.7 272c.3 0 .5.1.5.2l.3 1.5c0 .1 0 .2-.1.2-.2.1-.5.1-.7 0l-2.5-1.2c-.3-.1-.6-.2-.8-.2-.2 0-.5 0-.7.1-.2.1-.3.2-.3.4s.1.2.3.4l.3.1c.2.1.2.2 0 .3-.2.1-.4.1-.7 0l-.3-.1c-.3-.1-.5-.3-.6-.7 0-.3.2-.6.6-.7.4-.2.9-.3 1.3-.3.5 0 1.1.1 1.5.3l1.5.8-.2-.9c.2-.1.4-.2.6-.2zM182.7 261.2c.4-.2.9-.3 1.3-.3.5 0 1 .1 1.5.3.4.2.7.5.7.7 0 .3-.2.6-.5.7-.2.1-.4.1-.6 0-.2-.1-.2-.2 0-.3.2-.1.3-.2.2-.4-.1-.2-.2-.3-.4-.4-.2-.1-.5-.2-.8-.2-.3 0-.5 0-.7.2-.2.1-.3.2-.3.4 0 .1 0 .1-.1.2-.2.1-.4.1-.6 0l-.9-.4.1.7c0 .1-.2.2-.4.2s-.5-.1-.5-.2l-.2-1.2c0-.1.2-.2.4-.2h.3l1.1.5c.2-.1.3-.2.4-.3z" class="st4" transform="translate(998 599.176) translate(43.274 175.427)"/>
                    <path d="M180.8 249.9l1.3.5 1.1-.5c.2-.1.4-.1.6 0l.1.1c0 .1 0 .2-.1.2l-1 .4 1.1.4c.1 0 .2.1.2.2v.1c-.2.1-.4.1-.5 0l-1.4-.5-1.1.5c-.2.1-.4.1-.6 0-.1-.1-.1-.2 0-.3l.9-.4-1.1-.4c-.2-.1-.2-.2-.1-.3h.6z" class="st9" transform="translate(998 599.176) translate(43.274 175.427)"/>
                    <path d="M213.9 283.9c0-.2.2-.3.6-.3s.7.1.8.3c.1.2-.2.3-.6.3s-.8-.1-.8-.3zM209.1 274.1c-.7 0-1.4-.1-2.1-.3-.6-.2-1.1-.5-1.1-.8-.1-.3.2-.6.7-.8.6-.2 1.3-.3 1.9-.3.7 0 1.4.1 2.1.3.6.2 1.1.5 1.2.8.1.3-.2.6-.7.8-.6.3-1.3.3-2 .3zm-.4-1.6c-.5 0-1 0-1.5.2-.3.1-.5.3-.4.4s.2.3.6.4c.5.1 1 .2 1.5.2s1-.1 1.5-.2c.3-.1.5-.3.4-.4s-.2-.3-.6-.4c-.6-.1-1.1-.2-1.5-.2z" class="st4" transform="translate(998 599.176) translate(43.274 175.427)"/>
                    <path d="M205.2 262.6c-.2 0-.5-.1-.5-.2l-.4-1.3c0-.1.1-.2.4-.2s.5.1.5.2l.4 1.3c0 .1-.1.2-.4.2zm1.5 0c-.3 0-.5-.1-.6-.2l-.4-1.3c0-.1.2-.2.4-.2.3 0 .5.1.5.2l.4 1.3c.1.1 0 .2-.3.2zM202.7 250.8l.2.6c0 .1-.1.2-.4.2-.2 0-.5-.1-.5-.2l-.2-.6h-1c-.2 0-.5-.1-.5-.2s.1-.2.4-.2h1l-.2-.6c0-.1.1-.2.4-.2.2 0 .5.1.5.2l.2.6h1.1c.2 0 .4.1.5.2 0 .1-.1.2-.4.2h-1.1zM112.7 271.6c.2 0 .4.1.3.2l-.1.5c1.2.2 4.3.8 5.2.9.1 0 .2 0 .3.1l.1.1s0 .1-.2.2-1.2.6-1.6.7c-.3.1-.6.2-.9.1v-.1c0-.1 0-.1.1-.2l.4-.2.3-.2.3-.1.3-.2-4.9-.9h-.1l-.1-.1.1-.7c.1 0 .3-.1.5-.1z" class="st9" transform="translate(998 599.176) translate(43.274 175.427)"/>
                    <path fill="#455A64" d="M100.8 245.7L88.9 289H65.7l16.5-43.3h18.6z" transform="translate(998 599.176) translate(43.274 175.427)"/>
                    <path d="M80.9 265.3H89c.4 0 .7.2.6.4s-.5.4-.9.4H82l.2.3v.2c-.1.2-.3.3-.5.3-.3.1-.7.1-1-.1l-.7-.8h.5l.4-.7zM90.2 261.3c.4 0 .7.2.6.4l-.7 2.4-.3.3c-.3.1-.7.1-1.1 0l-3-2c-.4-.2-.8-.3-1.2-.3-.4 0-.8.1-1.2.2-.3.1-.6.3-.8.7-.1.2 0 .5.2.6l.3.2c.2.2.1.4-.2.5-.3.2-.7.2-1.1 0l-.3-.2c-.4-.2-.6-.7-.5-1.1.3-.6.9-1 1.5-1.2.7-.3 1.5-.4 2.3-.4.8 0 1.5.2 2.2.5l1.9 1.3.5-1.5c.1-.2.5-.4.9-.4zM86.4 257.8c.8-.3 1.6-.5 2.5-.5.7 0 1.5.1 2.1.5.5.2.7.7.6 1.2-.3.6-.7 1-1.3 1.2-.3.2-.7.2-1.1 0-.2-.2-.2-.4.2-.6.3-.1.6-.3.7-.6.1-.3-.1-.5-.3-.7-.4-.2-.8-.3-1.2-.3-.5 0-.9.1-1.3.3-.3.1-.6.3-.8.6 0 .1-.1.2-.3.3-.3.1-.7.1-1.1 0l-1.1-.7-.4 1.1c0 .2-.5.4-.9.4s-.7-.2-.6-.4l.7-2c0-.2.5-.4.9-.4h.5l1.4.9c.3-.1.5-.2.8-.3zM91.2 252.5c.4 0 .6.2.6.4v.1h1c.4 0 .6.2.6.4s-.4.4-.8.4h-1l-.7 2.1c0 .1-.1.2-.2.2-.3.1-.7.1-1 0l-5.1-2.5v-.1h5.5v-.1c.4-.7.7-.9 1.1-.9zm-4.2 1.2l2.7 1.4.5-1.4H87zM89.3 249.1c.7-.3 1.5-.5 2.4-.5.7 0 1.4.2 2 .5.5.2.7.7.6 1.2-.2.6-.7 1-1.3 1.2-.3.2-.7.2-1 0-.2-.2-.2-.4.2-.6.3-.1.6-.3.7-.7.1-.3 0-.5-.3-.6-.3-.2-.7-.3-1.1-.3-.4 0-.9.1-1.3.3-.3.1-.6.3-.7.6-.1.3 0 .5.3.7.2.2.1.4-.2.6l-.2.1h-.5l-3.2-.2c-.2 0-.3-.1-.5-.2v-.2l.7-2c0-.2.5-.4.8-.4s.6.2.6.4l-.6 1.7 1.2.1v-.5c.3-.5.8-1 1.4-1.2z" class="st4" transform="translate(998 599.176) translate(43.274 175.427)"/>
                </g>
            </g>
        </g>
    </svg>